{
.appVersion = "3260";
.formatVersion = 3;
DisplayStrings = (
"Zero Handles
ABCDEFGHIJKLMNOPQRSTUVWXYZabcdefghijklmnopqrstuvwxyz0123456789

Angled Handles
CFJMZkuw

Almost Orthogonal Lines
FYiw24

Bad Outline Order
ae

Bad Path Orientation
acez

"
);
customParameters = (
{
name = vendorID;
value = XXXX;
},
{
name = panose;
value = (
0,
0,
5,
0,
0,
0,
0,
0,
0,
0
);
},
{
name = unicodeRanges;
value = (
0
);
},
{
name = codePageRanges;
value = (
"1252"
);
},
{
name = blueScale;
value = 0.037;
},
{
name = glyphOrder;
value = (
.notdef,
A,
B,
C,
D,
E,
F,
G,
H,
I,
J,
K,
L,
M,
N,
O,
P,
Q,
R,
S,
T,
U,
V,
W,
X,
Y,
Z,
a,
b,
c,
d,
e,
f,
g,
h,
i,
j,
k,
l,
m,
n,
o,
p,
q,
r,
s,
t,
u,
v,
w,
x,
y,
z,
zero,
one,
two,
three,
four,
five,
six,
seven,
eight,
nine,
space,
uni00A0,
CR
);
}
);
date = "2017-03-01 08:48:33 +0000";
familyName = Mx5;
fontMaster = (
{
customParameters = (
{
name = typoAscender;
value = 893;
},
{
name = typoDescender;
value = -200;
},
{
name = typoLineGap;
value = 107;
},
{
name = winAscent;
value = 1000;
},
{
name = winDescent;
value = 200;
},
{
name = hheaAscender;
value = 1000;
},
{
name = hheaDescender;
value = -200;
},
{
name = strikeoutPosition;
value = 404;
},
{
name = strikeoutSize;
value = 50;
}
);
id = m01;
metricValues = (
{
pos = 893;
},
{
pos = 873;
},
{
pos = 674;
},
{
},
{
pos = -200;
},
{
}
);
name = Regular;
}
);
glyphs = (
{
glyphname = A;
layers = (
{
layerId = m01;
shapes = (
{
closed = 1;
nodes = (
(460,618,o),
(0,0,o),
(0,0,c),
(105,0,ls),
(182,0,o),
(255,37,o),
(301,99,c),
(301,99,o),
(402,234,o),
(402,234,c),
(788,234,l),
(788,234,o),
(710,0,o),
(710,0,c),
(825,0,o),
(927,74,o),
(963,183,c),
(963,183,o),
(1189,861,o),
(1189,861,c),
(944,861,ls),
(753,861,o),
(574,771,o),
(460,618,c)
);
},
{
closed = 1;
nodes = (
(641,556,ls),
(699,633,o),
(789,679,o),
(886,679,cs),
(936,679,l),
(936,679,o),
(849,417,o),
(849,417,c),
(538,417,l)
);
}
);
width = 1214;
}
);
note = A;
unicode = 65;
},
{
glyphname = B;
layers = (
{
layerId = m01;
shapes = (
{
closed = 1;
nodes = (
(830,526,o),
(830,526,o),
(830,526,c),
(838,552,ls),
(889,704,o),
(776,861,o),
(616,861,c),
(616,861,o),
(287,861,o),
(287,861,c),
(0,0,l),
(0,0,o),
(865,0,o),
(865,0,c),
(974,326,ls),
(1006,425,o),
(933,526,o),
(830,526,c)
);
},
{
closed = 1;
nodes = (
(419,679,o),
(594,679,o),
(594,679,c),
(640,679,o),
(673,633,o),
(658,589,cs),
(637,526,l),
(637,526,o),
(368,526,o),
(368,526,c),
(419,679,l)
);
},
{
closed = 1;
nodes = (
(733,182,o),
(253,182,o),
(253,182,c),
(307,344,l),
(307,344,o),
(787,344,o),
(787,344,c),
(733,182,l)
);
}
);
width = 1031;
}
);
note = B;
unicode = 66;
},
{
glyphname = C;
layers = (
{
layerId = m01;
shapes = (
{
closed = 1;
nodes = (
(890,182,o),
(253,182,o),
(253,182,c),
(419,679,l),
(419,679,o),
(753,679,o),
(753,679,c),
(742,645,ls),
(712,555,o),
(778,462,o),
(873,461,c),
(873,461,o),
(1006,861,o),
(1006,861,c),
(287,861,l),
(287,861,o),
(0,0,o),
(0,0,c),
(633,0,ls),
(749,0,o),
(852,73,o),
(890,182,c)
);
}
);
width = 1031;
}
);
note = C;
unicode = 67;
},
{
glyphname = D;
layers = (
{
layerId = m01;
shapes = (
{
closed = 1;
nodes = (
(1191,861,o),
(287,861,o),
(287,861,c),
(287,861,o),
(0,0,o),
(0,0,c),
(442,0,ls),
(570,0,o),
(688,66,o),
(757,174,cs),
(1191,861,l)
);
},
{
closed = 1;
nodes = (
(419,679,o),
(859,679,o),
(859,679,c),
(607,279,ls),
(569,219,o),
(503,182,o),
(431,182,c),
(431,182,o),
(253,182,o),
(253,182,c),
(419,679,l)
);
}
);
width = 1216;
}
);
note = D;
unicode = 68;
},
{
glyphname = E;
layers = (
{
layerId = m01;
shapes = (
{
closed = 1;
nodes = (
(1056,861,o),
(1056,861,o),
(1056,861,c),
(287,861,l),
(287,861,o),
(0,0,o),
(0,0,c),
(578,0,ls),
(693,0,o),
(794,74,o),
(829,182,c),
(829,182,o),
(829,182,o),
(829,182,c),
(253,182,l),
(253,182,o),
(306,339,o),
(306,339,c),
(563,339,ls),
(675,339,o),
(773,414,o),
(803,522,c),
(803,522,o),
(803,522,o),
(803,522,c),
(366,522,l),
(366,522,o),
(419,679,o),
(419,679,c),
(805,679,ls),
(920,679,o),
(1021,752,o),
(1056,861,c)
);
}
);
width = 1081;
}
);
note = E;
unicode = 69;
},
{
glyphname = F;
layers = (
{
layerId = m01;
shapes = (
{
closed = 1;
nodes = (
(1058,873,o),
(1058,873,o),
(1058,873,c),
(289,873,l),
(289,873,o),
(0,0,o),
(0,0,c),
(115,0,o),
(217,74,o),
(253,183,c),
(253,183,o),
(307,351,o),
(307,351,c),
(566,351,ls),
(678,351,o),
(776,426,o),
(805,534,c),
(805,534,o),
(805,534,o),
(805,534,c),
(368,534,l),
(368,534,o),
(421,694,o),
(421,694,c),
(803,692,ls),
(918,691,o),
(1020,764,o),
(1058,873,c)
);
}
);
width = 1083;
}
);
note = F;
unicode = 70;
},
{
glyphname = G;
layers = (
{
layerId = m01;
shapes = (
{
closed = 1;
nodes = (
(471,344,o),
(471,344,o),
(471,344,c),
(756,344,l),
(756,344,o),
(702,182,o),
(702,182,c),
(253,182,l),
(253,182,o),
(419,679,o),
(419,679,c),
(856,679,ls),
(972,679,o),
(1076,752,o),
(1115,861,c),
(1115,861,o),
(1115,861,o),
(1115,861,c),
(287,861,l),
(287,861,o),
(0,0,o),
(0,0,c),
(641,0,ls),
(756,0,o),
(859,74,o),
(896,184,c),
(896,184,o),
(1010,526,o),
(1010,526,c),
(725,526,ls),
(610,526,o),
(508,453,o),
(471,344,c)
);
}
);
width = 1140;
}
);
note = G;
unicode = 71;
},
{
glyphname = H;
layers = (
{
layerId = m01;
shapes = (
{
closed = 1;
nodes = (
(900,691,o),
(848,534,o),
(848,534,c),
(368,534,l),
(368,534,o),
(481,873,o),
(481,873,c),
(366,873,o),
(264,800,o),
(228,691,c),
(228,691,o),
(0,0,o),
(0,0,c),
(115,0,o),
(217,74,o),
(253,183,c),
(253,183,o),
(307,351,o),
(307,351,c),
(787,351,l),
(787,351,o),
(672,0,o),
(672,0,c),
(787,0,o),
(889,74,o),
(926,183,c),
(926,183,o),
(1153,873,o),
(1153,873,c),
(1038,873,o),
(936,800,o),
(900,691,c)
);
}
);
width = 1178;
}
);
note = H;
unicode = 72;
},
{
glyphname = I;
layers = (
{
layerId = m01;
shapes = (
{
closed = 1;
nodes = (
(831,842,o),
(837,861,o),
(837,861,c),
(467,861,l),
(467,861,o),
(467,861,o),
(467,861,c),
(366,861,o),
(276,798,o),
(242,703,c),
(242,703,o),
(233,679,o),
(233,679,c),
(406,679,l),
(406,679,o),
(240,182,o),
(240,182,c),
(135,182,o),
(41,116,o),
(6,17,c),
(6,17,o),
(0,0,o),
(0,0,c),
(180,0,l),
(180,0,o),
(372,0,o),
(372,0,c),
(472,0,o),
(561,63,o),
(595,157,c),
(595,157,o),
(604,182,o),
(604,182,c),
(433,182,l),
(433,182,o),
(598,679,o),
(598,679,c),
(703,679,o),
(796,744,o),
(831,842,c)
);
}
);
width = 862;
}
);
note = I;
unicode = 73;
},
{
glyphname = J;
layers = (
{
layerId = m01;
shapes = (
{
closed = 1;
nodes = (
(734,861,o),
(734,861,o),
(734,861,c),
(731,861,ls),
(618,861,o),
(518,787,o),
(487,679,c),
(487,679,o),
(487,679,o),
(487,679,c),
(673,679,l),
(673,679,o),
(508,182,o),
(508,182,c),
(219,182,l),
(219,182,o),
(286,383,o),
(286,383,c),
(171,384,o),
(69,310,o),
(33,201,cs),
(0,102,o),
(74,0,o),
(178,0,cs),
(443,0,ls),
(560,0,o),
(665,75,o),
(702,187,c),
(702,187,o),
(866,679,o),
(866,679,c),
(961,679,o),
(1044,741,o),
(1070,832,c),
(1070,832,o),
(1079,861,o),
(1079,861,c),
(734,861,l)
);
}
);
width = 1104;
}
);
note = J;
unicode = 74;
},
{
glyphname = K;
layers = (
{
layerId = m01;
shapes = (
{
closed = 1;
nodes = (
(914,876,o),
(785,813,o),
(700,704,c),
(700,704,o),
(570,536,o),
(570,536,c),
(371,536,l),
(371,536,o),
(484,876,o),
(484,876,c),
(369,876,o),
(267,802,o),
(230,693,c),
(230,693,o),
(0,0,o),
(0,0,c),
(115,0,o),
(217,74,o),
(253,183,c),
(253,183,o),
(310,354,o),
(310,354,c),
(789,354,l),
(789,354,o),
(672,0,o),
(672,0,c),
(787,0,o),
(889,74,o),
(926,183,cs),
(1043,536,l),
(1043,536,o),
(787,536,o),
(787,536,c),
(1051,876,l)
);
}
);
width = 1076;
}
);
note = K;
unicode = 75;
},
{
glyphname = L;
layers = (
{
layerId = m01;
shapes = (
{
closed = 1;
nodes = (
(770,182,o),
(770,182,o),
(770,182,c),
(253,182,l),
(253,182,o),
(480,861,o),
(480,861,c),
(365,861,o),
(262,788,o),
(226,679,c),
(226,679,o),
(0,0,o),
(0,0,c),
(588,0,ls),
(689,0,o),
(770,82,o),
(770,182,c)
);
}
);
width = 795;
}
);
note = L;
unicode = 76;
},
{
glyphname = M;
layers = (
{
layerId = m01;
shapes = (
{
closed = 1;
nodes = (
(294,873,l),
(294,873,o),
(0,0,o),
(0,0,c),
(115,0,o),
(217,74,o),
(253,183,c),
(253,183,o),
(397,603,o),
(397,603,c),
(590,493,l),
(590,493,o),
(501,228,o),
(501,228,c),
(617,229,o),
(719,303,o),
(756,412,c),
(756,412,o),
(774,467,o),
(774,467,c),
(1040,577,l),
(1040,577,o),
(845,0,o),
(845,0,c),
(960,0,o),
(1062,74,o),
(1098,183,c),
(1098,183,o),
(1338,893,o),
(1338,893,c),
(707,637,l)
);
}
);
width = 1363;
}
);
note = M;
unicode = 77;
},
{
glyphname = N;
layers = (
{
layerId = m01;
shapes = (
{
closed = 1;
nodes = (
(837,465,l),
(837,465,o),
(294,876,o),
(294,876,c),
(293,876,o),
(0,0,o),
(0,0,c),
(115,0,o),
(217,74,o),
(253,183,c),
(253,183,o),
(386,577,o),
(386,577,c),
(776,282,l),
(776,282,o),
(681,0,o),
(681,0,c),
(796,0,o),
(898,74,o),
(935,183,c),
(935,183,o),
(1167,876,o),
(1167,876,c),
(974,876,l)
);
}
);
width = 1192;
}
);
note = N;
unicode = 78;
},
{
glyphname = O;
layers = (
{
layerId = m01;
shapes = (
{
closed = 1;
nodes = (
(216,648,o),
(0,0,o),
(0,0,c),
(566,0,ls),
(708,0,o),
(834,91,o),
(879,226,c),
(879,226,o),
(1091,861,o),
(1091,861,c),
(511,861,ls),
(377,861,o),
(258,776,o),
(216,648,c)
);
},
{
closed = 1;
nodes = (
(253,182,o),
(419,679,o),
(419,679,c),
(837,679,l),
(837,679,o),
(672,182,o),
(672,182,c),
(253,182,l)
);
}
);
width = 1116;
}
);
note = O;
unicode = 79;
},
{
glyphname = P;
layers = (
{
layerId = m01;
shapes = (
{
closed = 1;
nodes = (
(933,501,o),
(1058,876,o),
(1058,876,c),
(292,876,l),
(292,876,o),
(0,0,o),
(0,0,c),
(115,0,o),
(217,74,o),
(253,183,c),
(253,183,o),
(289,287,o),
(289,287,c),
(636,287,ls),
(770,287,o),
(890,373,o),
(933,501,c)
);
},
{
closed = 1;
nodes = (
(424,693,o),
(804,693,o),
(804,693,c),
(730,469,l),
(730,469,o),
(349,469,o),
(349,469,c),
(424,693,l)
);
}
);
width = 1083;
}
);
note = P;
unicode = 80;
},
{
glyphname = Q;
layers = (
{
layerId = m01;
shapes = (
{
closed = 1;
nodes = (
(970,861,o),
(159,861,o),
(159,861,c),
(39,501,ls),
(0,385,o),
(53,258,o),
(162,203,c),
(162,203,o),
(570,0,o),
(570,0,c),
(980,0,l),
(980,0,o),
(725,127,o),
(725,127,c),
(970,861,l)
);
},
{
closed = 1;
nodes = (
(283,347,ls),
(232,372,o),
(208,431,o),
(226,484,cs),
(291,679,l),
(291,679,o),
(716,679,o),
(716,679,c),
(560,209,l)
);
}
);
width = 1005;
}
);
note = Q;
unicode = 81;
},
{
glyphname = R;
layers = (
{
layerId = m01;
shapes = (
{
closed = 1;
nodes = (
(852,455,o),
(895,586,o),
(895,586,c),
(940,721,o),
(840,861,o),
(697,861,cs),
(287,861,l),
(287,861,o),
(0,0,o),
(0,0,c),
(115,0,o),
(217,74,o),
(253,183,cs),
(283,272,l),
(283,272,o),
(867,272,o),
(867,272,c),
(837,183,ls),
(807,93,o),
(874,0,o),
(969,0,c),
(969,0,o),
(1121,455,o),
(1121,455,c),
(852,455,l)
);
},
{
closed = 1;
nodes = (
(419,679,o),
(734,679,o),
(734,679,c),
(659,455,l),
(659,455,o),
(344,455,o),
(344,455,c),
(419,679,l)
);
}
);
width = 1146;
}
);
note = R;
unicode = 82;
},
{
glyphname = S;
layers = (
{
layerId = m01;
shapes = (
{
closed = 1;
nodes = (
(362,522,o),
(414,679,o),
(414,679,c),
(779,679,ls),
(891,679,o),
(989,753,o),
(1019,861,c),
(1019,861,o),
(1019,861,o),
(1019,861,c),
(474,861,ls),
(359,861,o),
(258,788,o),
(222,679,c),
(222,679,o),
(109,339,o),
(109,339,c),
(662,339,l),
(662,339,o),
(609,182,o),
(609,182,c),
(245,182,ls),
(132,182,o),
(32,108,o),
(0,0,c),
(0,0,o),
(0,0,o),
(0,0,c),
(530,0,ls),
(656,0,o),
(768,80,o),
(808,200,c),
(808,200,o),
(916,522,o),
(916,522,c),
(362,522,l)
);
}
);
width = 1044;
}
);
note = S;
unicode = 83;
},
{
glyphname = T;
layers = (
{
layerId = m01;
shapes = (
{
closed = 1;
nodes = (
(130,877,o),
(31,802,o),
(0,694,c),
(0,694,o),
(0,694,o),
(0,694,c),
(342,694,l),
(342,694,o),
(114,0,o),
(114,0,c),
(229,0,o),
(331,74,o),
(368,183,c),
(368,183,o),
(535,694,o),
(535,694,c),
(687,694,ls),
(799,694,o),
(898,769,o),
(929,877,c),
(929,877,o),
(929,877,o),
(929,877,c),
(243,877,ls)
);
}
);
width = 954;
}
);
note = T;
unicode = 84;
},
{
glyphname = U;
layers = (
{
layerId = m01;
shapes = (
{
closed = 1;
nodes = (
(788,0,o),
(1075,861,o),
(1075,861,c),
(960,861,o),
(858,788,o),
(821,679,c),
(821,679,o),
(656,182,o),
(656,182,c),
(410,182,ls),
(295,182,o),
(214,295,o),
(250,404,cs),
(403,861,l),
(403,861,o),
(210,861,o),
(210,861,c),
(74,454,ls),
(0,231,o),
(166,0,o),
(402,0,cs),
(788,0,l)
);
}
);
width = 1100;
}
);
note = U;
unicode = 85;
},
{
glyphname = V;
layers = (
{
layerId = m01;
shapes = (
{
closed = 1;
nodes = (
(747,611,o),
(635,491,o),
(490,425,cs),
(293,335,l),
(293,335,o),
(463,891,o),
(463,891,c),
(350,891,o),
(249,817,o),
(216,708,c),
(216,708,o),
(0,0,o),
(0,0,c),
(565,258,ls),
(754,345,o),
(901,502,o),
(975,696,cs),
(1049,891,l),
(973,891,o),
(834,839,o),
(804,760,cs)
);
}
);
width = 1074;
}
);
note = V;
unicode = 86;
},
{
glyphname = W;
layers = (
{
layerId = m01;
shapes = (
{
closed = 1;
nodes = (
(1071,679,o),
(906,182,o),
(906,182,c),
(676,182,l),
(676,182,o),
(819,613,o),
(819,613,c),
(704,613,o),
(602,539,o),
(566,430,c),
(566,430,o),
(483,182,o),
(483,182,c),
(253,182,l),
(253,182,o),
(480,861,o),
(480,861,c),
(365,861,o),
(262,788,o),
(226,679,c),
(226,679,o),
(0,0,o),
(0,0,c),
(825,0,ls),
(952,0,o),
(1065,81,o),
(1105,201,c),
(1105,201,o),
(1325,861,o),
(1325,861,c),
(1210,861,o),
(1107,788,o),
(1071,679,c)
);
}
);
width = 1350;
}
);
note = W;
unicode = 87;
},
{
glyphname = X;
layers = (
{
layerId = m01;
shapes = (
{
closed = 1;
nodes = (
(971,892,l),
(971,892,o),
(650,610,o),
(650,610,c),
(567,733,ls),
(490,846,o),
(362,915,o),
(232,915,c),
(232,915,o),
(517,494,o),
(517,494,c),
(0,39,l),
(0,39,o),
(7,31,o),
(7,31,c),
(282,31,l),
(282,31,o),
(626,334,o),
(626,334,c),
(728,183,ls),
(805,70,o),
(932,0,o),
(1063,0,c),
(1063,0,o),
(758,450,o),
(758,450,c),
(1262,892,l)
);
}
);
width = 1287;
}
);
note = X;
unicode = 88;
},
{
glyphname = Y;
layers = (
{
layerId = m01;
shapes = (
{
closed = 1;
nodes = (
(787,461,l),
(787,461,o),
(622,476,o),
(556,507,cs),
(491,538,o),
(462,592,o),
(482,653,c),
(482,653,o),
(551,861,o),
(551,861,c),
(436,861,o),
(334,787,o),
(298,678,cs),
(296,672,ls),
(250,536,o),
(315,406,o),
(462,346,cs),
(608,286,o),
(728,283,o),
(728,283,c),
(694,182,l),
(694,182,o),
(207,182,o),
(207,182,c),
(218,214,ls),
(241,279,o),
(205,350,o),
(139,370,c),
(139,370,o),
(100,381,o),
(100,381,c),
(44,236,ls),
(0,122,o),
(84,0,o),
(205,0,cs),
(826,0,l),
(826,0,o),
(1113,861,o),
(1113,861,c),
(998,861,o),
(896,788,o),
(860,679,cs)
);
}
);
width = 1138;
}
);
note = Y;
unicode = 89;
},
{
glyphname = Z;
layers = (
{
layerId = m01;
shapes = (
{
closed = 1;
nodes = (
(463,182,o),
(1157,861,o),
(1157,861,c),
(380,861,ls),
(280,861,o),
(208,779,o),
(220,679,c),
(220,679,o),
(220,679,o),
(220,679,c),
(693,679,l),
(693,679,o),
(0,0,o),
(0,0,c),
(882,0,ls),
(983,0,o),
(1063,61,o),
(1072,182,c),
(463,182,l)
);
}
);
width = 1182;
}
);
note = Z;
unicode = 90;
},
{
glyphname = a;
lastChange = "2024-06-01 14:09:35 +0000";
layers = (
{
layerId = m01;
shapes = (
{
closed = 1;
nodes = (
(574,6,ls),
(682,6,o),
(775,83,o),
(795,189,c),
(795,189,o),
(684,189,o),
(684,189,c),
(806,604,l),
(806,604,o),
(381,604,o),
(381,604,c),
(259,604,o),
(152,523,o),
(118,406,c),
(118,406,o),
(0,6,o),
(0,6,c)
);
},
{
closed = 1;
nodes = (
(312,421,l),
(312,421,o),
(562,421,o),
(562,421,c),
(494,189,l),
(494,189,o),
(244,189,o),
(244,189,c)
);
}
);
width = 831;
}
);
note = a;
unicode = 97;
},
{
glyphname = b;
layers = (
{
layerId = m01;
shapes = (
{
closed = 1;
nodes = (
(447,880,l),
(334,880,o),
(234,806,o),
(202,697,c),
(202,697,o),
(0,9,o),
(0,9,c),
(415,9,ls),
(545,9,o),
(660,95,o),
(696,219,cs),
(726,319,ls),
(767,461,o),
(661,604,o),
(513,604,c),
(513,604,o),
(365,604,o),
(365,604,c)
);
},
{
closed = 1;
nodes = (
(565,421,o),
(498,192,o),
(498,192,c),
(244,192,l),
(244,192,o),
(311,421,o),
(311,421,c),
(565,421,l)
);
}
);
width = 792;
}
);
note = b;
unicode = 98;
},
{
glyphname = c;
layers = (
{
layerId = m01;
shapes = (
{
closed = 1;
nodes = (
(497,6,o),
(0,6,o),
(0,6,c),
(112,386,ls),
(149,515,o),
(268,604,o),
(403,604,c),
(403,604,o),
(700,604,o),
(700,604,c),
(700,503,o),
(619,421,o),
(518,421,c),
(518,421,o),
(312,421,o),
(312,421,c),
(244,189,l),
(244,189,o),
(680,189,o),
(680,189,c),
(680,88,o),
(598,6,o),
(497,6,c)
);
}
);
width = 725;
}
);
note = c;
unicode = 99;
},
{
glyphname = d;
layers = (
{
layerId = m01;
shapes = (
{
closed = 1;
nodes = (
(616,697,o),
(589,604,o),
(589,604,c),
(329,604,ls),
(215,604,o),
(115,529,o),
(83,419,cs),
(38,266,ls),
(0,138,o),
(96,9,o),
(230,9,cs),
(604,9,l),
(604,9,o),
(860,880,o),
(860,880,c),
(747,880,o),
(648,806,o),
(616,697,c)
);
},
{
closed = 1;
nodes = (
(468,192,o),
(206,192,o),
(206,192,c),
(274,421,l),
(274,421,o),
(535,421,o),
(535,421,c),
(468,192,l)
);
}
);
width = 885;
}
);
note = d;
unicode = 100;
},
{
glyphname = e;
lastChange = "2024-06-01 14:09:35 +0000";
layers = (
{
layerId = m01;
shapes = (
{
closed = 1;
nodes = (
(690,12,l),
(747,189,l),
(747,189,o),
(210,189,o),
(210,189,c),
(227,261,l),
(227,261,o),
(527,261,o),
(527,261,c),
(602,261,o),
(670,310,o),
(692,382,cs),
(776,657,l),
(776,657,o),
(368,657,o),
(368,657,c),
(240,657,o),
(126,574,o),
(92,451,cs),
(34,241,ls),
(2,124,o),
(88,6,o),
(210,6,c)
);
},
{
closed = 1;
nodes = (
(290,474,l),
(290,474,o),
(542,474,o),
(542,474,c),
(521,388,l),
(521,388,o),
(268,388,o),
(268,388,c)
);
}
);
width = 801;
}
);
note = e;
unicode = 101;
},
{
glyphname = f;
layers = (
{
layerId = m01;
shapes = (
{
closed = 1;
nodes = (
(576,601,o),
(682,669,o),
(730,775,c),
(409,775,ls),
(301,775,o),
(206,704,o),
(175,601,c),
(175,601,o),
(0,6,o),
(0,6,c),
(190,6,l),
(190,6,o),
(266,264,o),
(266,264,c),
(364,264,ls),
(479,264,o),
(581,338,o),
(616,447,c),
(320,447,l),
(320,447,o),
(320,447,o),
(378,601,c),
(459,601,ls)
);
}
);
width = 755;
}
);
note = f;
unicode = 102;
},
{
glyphname = g;
layers = (
{
layerId = m01;
shapes = (
{
closed = 1;
nodes = (
(336,9,o),
(502,9,o),
(502,9,c),
(468,-106,l),
(468,-106,o),
(14,-106,o),
(14,-106,c),
(-14,-197,o),
(54,-289,o),
(149,-289,cs),
(412,-289,ls),
(526,-289,o),
(627,-213,o),
(659,-103,c),
(659,-103,o),
(867,604,o),
(867,604,c),
(410,604,ls),
(305,604,o),
(212,534,o),
(183,434,cs),
(136,276,ls),
(97,143,o),
(197,9,o),
(336,9,c)
);
},
{
closed = 1;
nodes = (
(369,421,o),
(623,421,o),
(623,421,c),
(556,192,l),
(556,192,o),
(302,192,o),
(302,192,c),
(369,421,l)
);
}
);
width = 891;
}
);
note = g;
unicode = 103;
},
{
glyphname = h;
layers = (
{
layerId = m01;
shapes = (
{
closed = 1;
nodes = (
(603,421,l),
(603,421,o),
(482,9,o),
(482,9,c),
(595,9,o),
(694,84,o),
(726,192,c),
(726,192,o),
(847,604,o),
(847,604,c),
(365,604,l),
(365,604,o),
(447,880,o),
(447,880,c),
(334,880,o),
(234,806,o),
(202,697,cs),
(0,9,l),
(0,9,o),
(190,9,o),
(190,9,c),
(311,421,l)
);
}
);
width = 872;
}
);
note = h;
unicode = 104;
},
{
glyphname = i;
layers = (
{
layerId = m01;
shapes = (
{
closed = 1;
nodes = (
(212,706,o),
(394,706,o),
(394,706,c),
(394,706,o),
(446,880,o),
(446,880,c),
(337,880,o),
(242,809,o),
(212,706,c)
);
},
{
closed = 1;
nodes = (
(173,589,o),
(0,0,o),
(0,0,c),
(113,0,o),
(212,74,o),
(244,183,c),
(244,183,o),
(363,587,o),
(363,587,c),
(173,589,l)
);
}
);
width = 471;
}
);
note = i;
unicode = 105;
},
{
glyphname = j;
layers = (
{
layerId = m01;
shapes = (
{
closed = 1;
nodes = (
(304,706,o),
(487,706,o),
(487,706,c),
(487,706,o),
(538,880,o),
(538,880,c),
(429,880,o),
(334,809,o),
(304,706,c)
);
},
{
closed = 1;
nodes = (
(266,589,o),
(156,220,o),
(110,60,cs),
(64,-100,o),
(0,-212,o),
(0,-212,c),
(111,-249,o),
(234,-163,o),
(291,27,cs),
(456,587,l),
(456,587,o),
(448,589,o),
(448,589,c),
(266,589,l)
);
}
);
width = 563;
}
);
note = j;
unicode = 106;
},
{
glyphname = k;
layers = (
{
layerId = m01;
shapes = (
{
closed = 1;
nodes = (
(901,649,o),
(814,664,o),
(715,654,cs),
(627,646,o),
(575,627,o),
(514,586,cs),
(324,460,l),
(324,460,o),
(447,880,o),
(447,880,c),
(334,880,o),
(235,806,o),
(203,697,cs),
(0,6,l),
(0,6,o),
(190,6,o),
(190,6,c),
(255,227,l),
(255,227,o),
(387,313,o),
(387,313,c),
(440,189,ls),
(487,78,o),
(596,6,o),
(717,6,c),
(717,6,o),
(542,415,o),
(542,415,c),
(901,649,l)
);
}
);
width = 926;
}
);
note = k;
unicode = 107;
},
{
glyphname = l;
layers = (
{
layerId = m01;
shapes = (
{
closed = 1;
nodes = (
(113,6,o),
(212,81,o),
(244,189,c),
(244,189,o),
(447,880,o),
(447,880,c),
(334,880,o),
(235,806,o),
(203,697,cs),
(0,6,l)
);
}
);
width = 472;
}
);
note = l;
unicode = 108;
},
{
glyphname = m;
layers = (
{
layerId = m01;
shapes = (
{
closed = 1;
nodes = (
(748,592,o),
(767,662,o),
(767,662,c),
(362,591,l),
(362,591,o),
(390,685,o),
(390,685,c),
(257,685,o),
(186,637,o),
(149,512,c),
(149,512,o),
(0,6,o),
(0,6,c),
(113,6,o),
(212,81,o),
(244,189,c),
(244,189,o),
(301,383,o),
(301,383,c),
(515,446,l),
(515,446,o),
(386,6,o),
(386,6,c),
(499,6,o),
(598,81,o),
(630,189,c),
(630,189,o),
(687,384,o),
(687,384,c),
(916,452,l),
(916,452,o),
(785,6,o),
(785,6,c),
(898,6,o),
(998,81,o),
(1029,189,c),
(1029,189,o),
(1170,667,o),
(1170,667,c),
(748,592,l)
);
}
);
width = 1195;
}
);
note = m;
unicode = 109;
},
{
glyphname = n;
layers = (
{
layerId = m01;
shapes = (
{
closed = 1;
nodes = (
(362,589,o),
(371,622,o),
(371,622,c),
(392,685,l),
(279,685,o),
(189,639,o),
(157,531,c),
(157,531,o),
(0,6,o),
(0,6,c),
(113,6,o),
(212,81,o),
(244,189,c),
(244,189,o),
(302,384,o),
(302,384,c),
(582,458,l),
(582,458,o),
(450,6,o),
(450,6,c),
(563,6,o),
(662,81,o),
(694,189,c),
(694,189,o),
(834,667,o),
(834,667,c),
(362,589,l)
);
}
);
width = 859;
}
);
note = n;
unicode = 110;
},
{
glyphname = o;
layers = (
{
layerId = m01;
shapes = (
{
closed = 1;
nodes = (
(688,217,o),
(807,622,o),
(807,622,c),
(400,622,ls),
(270,622,o),
(155,536,o),
(118,411,c),
(118,411,o),
(0,9,o),
(0,9,c),
(410,9,ls),
(539,9,o),
(652,94,o),
(688,217,c)
);
},
{
closed = 1;
nodes = (
(244,192,o),
(317,439,o),
(317,439,c),
(563,439,l),
(563,439,o),
(490,192,o),
(490,192,c),
(244,192,l)
);
}
);
width = 832;
}
);
note = o;
unicode = 111;
},
{
glyphname = p;
layers = (
{
layerId = m01;
shapes = (
{
closed = 1;
nodes = (
(294,11,o),
(533,11,o),
(533,11,c),
(659,11,o),
(771,94,o),
(806,215,c),
(806,215,o),
(926,622,o),
(926,622,c),
(483,622,ls),
(365,622,o),
(261,544,o),
(228,431,c),
(228,431,o),
(0,-343,o),
(0,-343,c),
(113,-343,o),
(212,-268,o),
(244,-160,cs),
(294,11,l)
);
},
{
closed = 1;
nodes = (
(420,439,o),
(682,439,o),
(682,439,c),
(609,193,l),
(609,193,o),
(348,193,o),
(348,193,c),
(420,439,l)
);
}
);
width = 951;
}
);
note = p;
unicode = 112;
},
{
glyphname = q;
layers = (
{
layerId = m01;
shapes = (
{
closed = 1;
nodes = (
(822,622,o),
(371,622,o),
(371,622,c),
(258,622,o),
(158,547,o),
(126,439,cs),
(0,11,l),
(0,11,o),
(452,11,o),
(452,11,c),
(401,-160,ls),
(375,-251,o),
(443,-343,o),
(538,-343,c),
(538,-343,o),
(538,-343,o),
(538,-343,c),
(822,622,l)
);
},
{
closed = 1;
nodes = (
(244,193,o),
(316,439,o),
(316,439,c),
(578,439,l),
(578,439,o),
(505,193,o),
(505,193,c),
(244,193,l)
);
}
);
width = 847;
}
);
note = q;
unicode = 113;
},
{
glyphname = r;
layers = (
{
layerId = m01;
shapes = (
{
closed = 1;
nodes = (
(181,622,o),
(0,8,o),
(0,8,c),
(113,8,o),
(212,82,o),
(244,190,c),
(244,190,o),
(317,439,o),
(317,439,c),
(398,439,ls),
(491,439,o),
(580,482,o),
(638,555,c),
(638,555,o),
(691,622,o),
(691,622,c),
(181,622,l)
);
}
);
width = 716;
}
);
note = r;
unicode = 114;
},
{
glyphname = s;
layers = (
{
layerId = m01;
shapes = (
{
closed = 1;
nodes = (
(177,509,o),
(172,442,o),
(199,383,c),
(199,383,o),
(286,190,o),
(286,190,c),
(183,190,ls),
(82,190,o),
(0,108,o),
(0,7,c),
(0,7,o),
(0,7,o),
(0,7,c),
(277,7,ls),
(342,7,o),
(402,39,o),
(437,93,cs),
(471,147,o),
(476,213,o),
(449,272,c),
(449,272,o),
(357,467,o),
(357,467,c),
(462,467,ls),
(563,467,o),
(644,548,o),
(644,649,c),
(644,649,o),
(644,649,o),
(644,649,c),
(372,649,ls),
(306,649,o),
(246,617,o),
(212,563,cs)
);
}
);
width = 669;
}
);
note = s;
unicode = 115;
},
{
glyphname = t;
layers = (
{
layerId = m01;
shapes = (
{
closed = 1;
nodes = (
(368,613,o),
(406,743,o),
(406,743,c),
(216,743,l),
(216,743,o),
(178,613,o),
(178,613,c),
(155,535,l),
(155,535,o),
(0,8,o),
(0,8,c),
(113,8,o),
(212,82,o),
(244,190,c),
(244,190,o),
(315,430,o),
(315,430,c),
(338,430,ls),
(450,430,o),
(549,505,o),
(579,613,c),
(579,613,o),
(579,613,o),
(579,613,c),
(368,613,l)
);
}
);
width = 604;
}
);
note = t;
unicode = 116;
},
{
glyphname = u;
layers = (
{
layerId = m01;
shapes = (
{
closed = 1;
nodes = (
(250,192,ls),
(216,192,o),
(192,224,o),
(201,257,cs),
(254,439,ls),
(281,531,o),
(213,622,o),
(117,622,c),
(117,622,o),
(117,622,o),
(117,622,c),
(22,297,ls),
(0,223,o),
(11,148,o),
(52,93,cs),
(92,40,o),
(156,9,o),
(229,8,c),
(229,8,o),
(609,6,o),
(609,6,c),
(736,439,ls),
(763,531,o),
(695,622,o),
(600,622,c),
(600,622,o),
(600,622,o),
(600,622,c),
(472,189,l)
);
}
);
width = 788;
}
);
note = u;
unicode = 117;
},
{
glyphname = v;
layers = (
{
layerId = m01;
shapes = (
{
closed = 1;
nodes = (
(236,464,ls),
(208,572,o),
(111,647,o),
(0,647,c),
(0,647,o),
(170,-16,o),
(170,-16,c),
(703,617,l),
(703,617,o),
(464,617,o),
(464,617,c),
(259,374,l)
);
}
);
width = 728;
}
);
note = v;
unicode = 118;
},
{
glyphname = w;
layers = (
{
layerId = m01;
shapes = (
{
closed = 1;
nodes = (
(755,189,l),
(755,189,o),
(560,190,o),
(560,190,c),
(633,439,ls),
(660,531,o),
(592,622,o),
(496,622,c),
(496,622,o),
(370,190,o),
(370,190,c),
(262,188,ls),
(223,187,o),
(194,224,o),
(205,261,cs),
(254,439,ls),
(281,531,o),
(213,622,o),
(118,622,c),
(118,622,o),
(118,622,o),
(118,622,c),
(22,297,ls),
(0,223,o),
(11,148,o),
(52,93,cs),
(92,40,o),
(156,9,o),
(229,8,c),
(229,8,o),
(892,7,o),
(892,7,c),
(1019,439,ls),
(1046,531,o),
(978,622,o),
(883,622,c)
);
}
);
width = 1071;
}
);
note = w;
unicode = 119;
},
{
glyphname = x;
layers = (
{
layerId = m01;
shapes = (
{
closed = 1;
nodes = (
(916,612,o),
(912,617,o),
(912,617,c),
(653,617,l),
(653,617,o),
(486,462,o),
(486,462,c),
(474,489,ls),
(423,602,o),
(311,674,o),
(187,674,c),
(187,674,o),
(346,333,o),
(346,333,c),
(0,12,l),
(0,12,o),
(5,7,o),
(5,7,c),
(263,7,l),
(263,7,o),
(430,161,o),
(430,161,c),
(430,161,o),
(430,161,o),
(430,161,c),
(448,127,ls),
(504,16,o),
(618,-54,o),
(743,-54,c),
(743,-54,o),
(570,291,o),
(570,291,c),
(916,612,l)
);
}
);
width = 941;
}
);
note = x;
unicode = 120;
},
{
glyphname = y;
layers = (
{
layerId = m01;
shapes = (
{
closed = 1;
nodes = (
(665,618,o),
(442,327,o),
(442,327,c),
(414,436,ls),
(387,543,o),
(290,618,o),
(179,618,c),
(179,618,o),
(179,618,o),
(179,618,c),
(300,143,l),
(300,143,o),
(0,-247,o),
(0,-247,c),
(145,-247,o),
(282,-179,o),
(371,-64,c),
(371,-64,o),
(896,618,o),
(896,618,c),
(665,618,l)
);
}
);
width = 921;
}
);
note = y;
unicode = 121;
},
{
glyphname = z;
layers = (
{
layerId = m01;
shapes = (
{
closed = 1;
nodes = (
(446,189,l),
(446,189,o),
(764,189,o),
(764,189,c),
(729,80,o),
(628,6,o),
(514,6,c),
(514,6,o),
(0,6,o),
(0,6,c),
(439,439,l),
(439,439,o),
(139,439,o),
(139,439,c),
(173,548,o),
(274,622,o),
(388,622,cs),
(885,622,l)
);
}
);
width = 910;
}
);
note = z;
unicode = 122;
},
{
glyphname = zero;
layers = (
{
layerId = m01;
shapes = (
{
closed = 1;
nodes = (
(940,274,o),
(1133,853,o),
(1133,853,c),
(579,853,ls),
(402,853,o),
(244,740,o),
(188,571,c),
(188,571,o),
(0,8,o),
(0,8,c),
(571,8,ls),
(738,8,o),
(887,115,o),
(940,274,c)
);
},
{
closed = 1;
nodes = (
(574,687,o),
(902,687,o),
(902,687,c),
(785,336,ls),
(753,239,o),
(662,174,o),
(561,174,c),
(561,174,o),
(231,174,o),
(231,174,c),
(347,523,ls),
(380,621,o),
(471,687,o),
(574,687,c)
);
},
{
closed = 1;
nodes = (
(693,527,o),
(505,527,o),
(505,527,c),
(442,339,l),
(442,339,o),
(630,339,o),
(630,339,c),
(693,527,l)
);
}
);
width = 1158;
}
);
note = zero;
unicode = 48;
},
{
glyphname = one;
layers = (
{
layerId = m01;
shapes = (
{
closed = 1;
nodes = (
(472,182,o),
(698,861,o),
(698,861,c),
(469,861,ls),
(357,861,o),
(258,787,o),
(226,679,c),
(226,679,o),
(226,679,o),
(226,679,c),
(445,679,l),
(445,679,o),
(279,182,o),
(279,182,c),
(232,182,ls),
(122,182,o),
(26,107,o),
(0,0,c),
(0,0,o),
(0,0,o),
(0,0,c),
(329,0,l),
(329,0,o),
(411,0,o),
(411,0,c),
(493,0,ls),
(603,0,o),
(698,75,o),
(725,182,c),
(725,182,o),
(725,182,o),
(725,182,c),
(472,182,l)
);
}
);
width = 750;
}
);
note = one;
unicode = 49;
},
{
glyphname = two;
layers = (
{
layerId = m01;
shapes = (
{
closed = 1;
nodes = (
(663,316,o),
(619,182,o),
(619,182,c),
(412,182,l),
(556,310,o),
(718,497,o),
(799,741,c),
(799,741,o),
(839,861,o),
(839,861,c),
(452,861,ls),
(308,861,o),
(181,769,o),
(136,633,c),
(136,633,o),
(87,488,o),
(87,488,c),
(279,486,l),
(279,486,o),
(343,679,o),
(343,679,c),
(576,679,l),
(450,427,o),
(225,238,o),
(42,182,c),
(44,182,l),
(44,182,o),
(0,0,o),
(0,0,c),
(751,0,l),
(751,0,o),
(855,312,o),
(855,312,c),
(663,316,l)
);
}
);
width = 880;
}
);
note = two;
unicode = 50;
},
{
glyphname = three;
layers = (
{
layerId = m01;
shapes = (
{
closed = 1;
nodes = (
(794,526,o),
(906,861,o),
(906,861,c),
(427,861,ls),
(316,861,o),
(219,786,o),
(192,679,c),
(652,679,l),
(652,679,o),
(602,526,o),
(602,526,c),
(436,526,ls),
(323,526,o),
(224,452,o),
(193,344,c),
(751,344,l),
(751,344,o),
(698,182,o),
(698,182,c),
(237,182,ls),
(126,182,o),
(29,107,o),
(0,0,c),
(829,0,l),
(829,0,o),
(1005,526,o),
(1005,526,c),
(794,526,l)
);
}
);
width = 1030;
}
);
note = three;
unicode = 51;
},
{
glyphname = four;
layers = (
{
layerId = m01;
shapes = (
{
closed = 1;
nodes = (
(834,861,o),
(694,442,o),
(694,442,c),
(333,442,l),
(333,442,o),
(603,861,o),
(603,861,c),
(468,861,o),
(341,792,o),
(268,679,c),
(268,679,o),
(0,262,o),
(0,262,c),
(634,261,l),
(634,261,o),
(535,-36,o),
(535,-36,c),
(650,-36,o),
(752,38,o),
(789,147,c),
(789,147,o),
(1026,861,o),
(1026,861,c),
(834,861,l)
);
}
);
width = 1051;
}
);
note = four;
unicode = 52;
},
{
glyphname = five;
layers = (
{
layerId = m01;
shapes = (
{
closed = 1;
nodes = (
(914,549,o),
(381,549,o),
(381,549,c),
(424,679,l),
(424,679,o),
(960,679,o),
(960,679,c),
(1007,861,l),
(1007,861,o),
(292,861,o),
(292,861,c),
(127,366,l),
(127,366,o),
(661,366,o),
(661,366,c),
(648,328,ls),
(619,241,o),
(538,182,o),
(446,182,cs),
(67,182,l),
(67,182,o),
(0,0,o),
(0,0,c),
(511,0,ls),
(643,0,o),
(760,84,o),
(801,209,cs),
(914,549,l)
);
}
);
width = 1032;
}
);
note = five;
unicode = 53;
},
{
glyphname = six;
layers = (
{
layerId = m01;
shapes = (
{
closed = 1;
nodes = (
(930,522,o),
(366,522,o),
(366,522,c),
(366,522,o),
(419,679,o),
(419,679,c),
(958,679,l),
(958,679,o),
(1008,861,o),
(1008,861,c),
(575,861,ls),
(403,861,o),
(250,751,o),
(196,588,c),
(196,588,o),
(0,0,o),
(0,0,c),
(464,0,ls),
(639,0,o),
(793,112,o),
(848,277,cs),
(930,522,l)
);
},
{
closed = 1;
nodes = (
(253,182,o),
(306,339,o),
(306,339,c),
(677,339,l),
(677,339,o),
(624,182,o),
(624,182,c),
(253,182,l)
);
}
);
width = 1033;
}
);
note = six;
unicode = 54;
},
{
glyphname = seven;
layers = (
{
layerId = m01;
shapes = (
{
closed = 1;
nodes = (
(255,861,l),
(255,861,o),
(185,679,o),
(185,679,c),
(651,679,l),
(651,679,o),
(0,-36,o),
(0,-36,c),
(165,-36,o),
(317,30,o),
(423,147,cs),
(1074,861,l)
);
}
);
width = 1099;
}
);
note = seven;
unicode = 55;
},
{
glyphname = eight;
layers = (
{
layerId = m01;
shapes = (
{
closed = 1;
nodes = (
(913,522,o),
(1027,861,o),
(1027,861,c),
(680,861,ls),
(515,861,o),
(368,756,o),
(316,599,c),
(316,599,o),
(290,522,o),
(290,522,c),
(174,522,l),
(174,522,o),
(0,0,o),
(0,0,c),
(633,0,ls),
(775,0,o),
(901,91,o),
(946,226,c),
(946,226,o),
(1045,522,o),
(1045,522,c),
(913,522,l)
);
},
{
closed = 1;
nodes = (
(683,679,o),
(773,679,o),
(773,679,c),
(721,522,l),
(721,522,o),
(483,522,o),
(483,522,c),
(488,538,ls),
(516,622,o),
(595,679,o),
(683,679,c)
);
},
{
closed = 1;
nodes = (
(632,182,o),
(253,182,o),
(253,182,c),
(306,339,l),
(306,339,o),
(792,339,o),
(792,339,c),
(773,284,ls),
(753,223,o),
(696,182,o),
(632,182,c)
);
}
);
width = 1070;
}
);
note = eight;
unicode = 56;
},
{
glyphname = nine;
layers = (
{
layerId = m01;
shapes = (
{
closed = 1;
nodes = (
(1041,861,o),
(527,861,o),
(527,861,c),
(382,861,o),
(254,769,o),
(208,632,c),
(208,632,o),
(111,339,o),
(111,339,c),
(674,339,l),
(674,339,o),
(622,182,o),
(622,182,c),
(251,182,ls),
(137,182,o),
(36,109,o),
(0,0,c),
(0,0,o),
(0,0,o),
(0,0,c),
(507,0,ls),
(655,0,o),
(785,94,o),
(832,234,cs),
(1041,861,l)
);
},
{
closed = 1;
nodes = (
(364,522,o),
(416,679,o),
(416,679,c),
(788,679,l),
(788,679,o),
(735,522,o),
(735,522,c),
(364,522,l)
);
}
);
width = 1066;
}
);
note = nine;
unicode = 57;
},
